<?xml version="1.0" standalone="no"?>
<!DOCTYPE svg PUBLIC "-//W3C//DTD SVG 20010904//EN"
 "http://www.w3.org/TR/2001/REC-SVG-20010904/DTD/svg10.dtd">
<svg version="1.0" xmlns="http://www.w3.org/2000/svg"
 width="300.000000pt" height="200.000000pt" viewBox="0 0 300.000000 200.000000"
 preserveAspectRatio="xMidYMid meet">
<metadata>
Created by potrace 1.10, written by Peter Selinger 2001-2011
</metadata>
<g transform="translate(0.000000,200.000000) scale(0.100000,-0.100000)"
fill="#000000" stroke="none">
<path d="M1338 1885 c-86 -16 -173 -47 -265 -94 -57 -28 -70 -31 -161 -31
-156 0 -226 -36 -266 -138 -18 -48 -23 -252 -6 -296 7 -19 4 -46 -12 -103 -31
-112 -31 -334 0 -448 68 -252 244 -466 477 -580 141 -70 223 -88 395 -88 172
0 254 18 395 88 233 114 408 328 477 580 31 114 31 335 -1 450 -86 317 -333
564 -648 646 -103 27 -282 33 -385 14z m379 -45 c105 -29 184 -64 270 -123 85
-58 199 -174 239 -243 15 -27 33 -56 39 -64 48 -59 105 -291 105 -425 0 -144
-59 -331 -148 -465 -49 -75 -163 -189 -243 -242 -250 -169 -592 -192 -862 -57
-180 91 -325 243 -412 432 -51 112 -69 204 -69 342 0 113 17 235 32 235 4 0
27 -14 51 -30 24 -17 51 -30 61 -30 9 0 21 -5 26 -10 14 -14 416 -8 466 7 91
26 143 101 128 182 -5 27 -4 56 2 74 17 47 2 182 -24 230 -30 54 -92 95 -165
109 -75 14 -82 22 -40 41 137 65 376 81 544 37z m-442 -127 c22 -11 48 -29 57
-40 30 -33 48 -102 48 -184 l0 -79 -260 0 -260 0 0 -27 c0 -60 31 -73 169 -73
98 0 113 2 131 20 11 11 20 25 20 30 0 6 40 10 100 10 l100 0 0 -33 c0 -89
-70 -140 -215 -158 -99 -13 -307 -6 -368 12 -58 16 -114 72 -132 132 -18 60
-20 209 -3 274 14 57 70 116 124 131 23 6 123 10 244 9 188 -2 208 -4 245 -24z
m-135 -341 c0 -24 -30 -32 -115 -32 -91 0 -123 9 -111 29 8 13 226 16 226 3z"/>
<path d="M1740 1399 c-110 -78 -124 -92 -161 -158 -18 -31 -41 -67 -53 -81
-11 -14 -32 -47 -46 -73 -29 -55 -49 -63 -105 -44 -47 17 -76 9 -118 -31 -33
-31 -52 -62 -39 -62 5 0 30 19 56 41 l47 42 57 -18 c31 -9 63 -17 70 -18 8 -1
46 56 88 133 81 147 85 152 222 246 l93 64 135 -25 c154 -28 154 -28 154 -15
0 6 -9 10 -20 10 -11 0 -20 4 -20 8 0 9 -191 42 -240 42 -26 -1 -56 -16 -120
-61z"/>
<path d="M1972 1345 c-62 -12 -114 -24 -116 -26 -4 -5 -116 -450 -116 -461 0
-4 39 -27 88 -52 l87 -43 101 27 c129 35 162 53 84 46 -30 -3 -75 -12 -99 -21
-61 -21 -89 -19 -146 11 -78 41 -80 44 -67 111 5 32 20 94 31 138 12 44 26
101 31 127 13 68 34 95 78 102 81 15 213 49 218 57 8 14 -51 9 -174 -16z"/>
<path d="M1746 1301 c-38 -9 -71 -22 -74 -29 -2 -8 2 -10 14 -5 29 11 7 -14
-42 -48 -82 -56 -38 -42 80 27 64 36 116 68 116 70 0 6 -20 3 -94 -15z"/>
<path d="M1223 933 c3 -5 25 -16 49 -23 24 -8 46 -19 50 -24 4 -6 -69 -35
-178 -71 -107 -36 -190 -69 -197 -80 -7 -9 -19 -38 -26 -64 -7 -25 -20 -65
-27 -89 -8 -23 -14 -50 -14 -59 0 -36 22 7 55 108 l33 103 206 70 c113 38 206
74 206 81 0 29 -27 44 -94 51 -43 4 -67 3 -63 -3z"/>
<path d="M1390 834 c0 -28 29 -45 90 -54 111 -16 130 -9 30 12 -56 11 -100 26
-107 36 -7 9 -13 11 -13 6z"/>
<path d="M2100 754 c-50 -55 -125 -185 -118 -206 2 -5 19 18 38 52 19 34 44
72 55 84 67 73 95 107 95 116 0 21 -20 8 -70 -46z"/>
<path d="M1659 755 c-3 -2 -99 -20 -214 -40 l-210 -37 -159 -81 c-88 -45 -162
-88 -164 -96 -3 -8 0 -11 7 -7 6 4 19 9 28 11 10 2 83 38 162 80 l144 77 206
35 c190 32 211 34 273 23 36 -6 73 -17 81 -23 8 -7 40 -45 71 -84 31 -40 61
-73 67 -73 15 0 -5 31 -61 99 -28 33 -50 64 -50 69 0 5 28 3 63 -4 63 -14 125
-18 115 -9 -5 5 -322 65 -343 65 -7 0 -14 -2 -16 -5z"/>
<path d="M882 1594 c-12 -8 -22 -25 -22 -37 0 -22 2 -22 155 -22 153 0 155 0
155 22 0 41 -35 53 -155 53 -84 0 -116 -4 -133 -16z"/>
</g>
</svg>
